<svg xmlns="http://www.w3.org/2000/svg" width="320" height="140" viewBox="0 0 320 140">
	<path d="M31.129 56.487V62H19.24v21.63h-6.727V62H.624v-5.513zm151.371-6.08q-.528 1.815-.959 3.668h11.381q.52-1.86 1.158-3.668a59 59 0 01111.281 0h11.58a70.025 70.025 0 00-134.441 0zm29.322 6.08h-31.761v5.4h21.784L188 72.326l-7.935 5.983v5.321h31.756v-5.438h-21.045l21.041-16.229v-5.476zm4.811 0V83.63h28.864v-5.438h-22.142v-5.866h21.433V66.89h-21.433v-5.007h22.137v-5.4zm64.1 4.478l-.029-.071.029.071zm-30.584-4.478V83.63h6.806v-8.1h13.335q4.617 0 4.616 3.871v4.229h6.766V78a10.6 10.6 0 00-.244-2.483l-.006-.022V75.451a4.488 4.488 0 00-.365-.991 2.701 2.701 0 00-.079-.143l-.006-.011V74.285a3.172 3.172 0 00-1.756-1.409l.119-.072.042-.027.009-.007h.009l.02-.013h.005a4.017 4.017 0 00.682-.561 4.105 4.105 0 00.935-1.536V70.552l.01-.029v-.005l.009-.029v-.012a18.74 18.74 0 00.348-5.265 11.557 11.557 0 00-.665-4.2l-.029-.071-.025-.061v-.011a5.922 5.922 0 00-1.664-2.341 5.982 5.982 0 00-.748-.53l-.013-.008-.022-.013-.034-.021c-1.7-1.024-4.071-1.412-7.066-1.412zm30.225 3.713l-.031-.056.02.036.011.02zm-.091-.164l-.032-.053.017.027.015.026zm-.032-.053l-.033-.054.016.027.017.027zm-.033-.054l-.032-.053.015.025.017.028zm-.064-.1l-.033-.053.012.02.021.033zm-.033-.053l-.034-.051.012.017.022.034zm-.034-.051l-.034-.05.011.014.023.036zm-.034-.05l-.034-.05.009.012.025.038zm-.069-.1l-.071-.1v.007l.038.05.028.041zm-.071-.1l-.035-.048.031.044zm-.184-.237l-.038-.047.036.044zm-.038-.047l-.039-.045.036.041zm-.078-.09l-.039-.045.032.037.007.008zm-.079-.089l-.041-.044.03.033.011.011zm-.041-.044l-.041-.044.03.032.011.012zm-.041-.044l-.04-.042.027.029.013.013zm-22.619 4.062h14.782c.209.006.4.016.586.033a5.623 5.623 0 01.7.106H273.053l.072.021.035.011.016.006h.012l.043.014H273.265l.064.025.023.01h.007l.018.008.011.006h.016l.056.03.056.031.02.013h.016l.01.006.046.034.047.037.066.058c.573.526.682 1.4.682 2.721v.451a3.381 3.381 0 01-.194.967l-.006.015-.005.015a1.707 1.707 0 01-.726.869 4.394 4.394 0 01-2 .415h-14.639v-6.1zm16.8 5.71l-.024.013.024-.013zm-.1.051l-.026.012.026-.011zm-.026.012l-.025.011.025-.011zm-.05.024l-.025.011.025-.01zm-.025.011l-.026.01.026-.01zm-.026.01l-.027.011.027-.011zm-.027.011l-.027.011.027-.011zm-.027.011l-.027.01.027-.01zm-.027.01l-.026.01.026-.01zm-.026.01l-.029.01.029-.01zm-.029.01l-.027.01.027-.01zm-.113.037l-.028.009.028-.009zm-.028.009l-.03.008.03-.008zm-.059.017l-.03.007.03-.007zm-.03.007l-.03.009.03-.008zm-.092.023l-.031.007.031-.007zm-.031.007l-.032.008.032-.007zm-.032.008l-.032.006.032-.006zm-.032.006l-.032.007.032-.006zm-.032.007l-.033.006.033-.006zm-.1.018l-.033.006.033-.006zm-.1.016l-.034.006.034-.006zm-.07.011h-.033.033zm-.07.008l-.034.005.034-.005zm-.071.01h-.036.036zm-.072.007h-.037.037zm-.074.007h-.037.037zm8.653 5.2a4.616 4.616 0 01.5 1.271l-.5-1.271zm-1.549-1.538a4.41 4.41 0 00.5-.38 3.643 3.643 0 001.067-1.565l.1-.3-.006.019-1.662 2.231zm1.319-11.837l-.016-.036.016.036zm-9.076 2.115a3.811 3.811 0 012.289.6l.042.036-.066-.058-2.265-.579zm2.041.423l-.056-.031-.056-.03.112.061zm-.209-.107l-.023-.009-.064-.025.087.035zm-.237-.09l-.016-.006-.035-.011-.072-.021.123.038zm1.411 3.415v.089V66.635zm-.009.168a3.419 3.419 0 01-.2.985l.2-.985zM65.976 78v5.63h-6.765v-4.225q0-3.871-4.615-3.871H41.259v8.1h-6.8V56.487h20.958q5.514 0 7.9 1.994t2.383 6.688v1.878a11.826 11.826 0 01-.45 3.714 3.849 3.849 0 01-1.779 2.074 3.244 3.244 0 011.877 1.623A7.844 7.844 0 0165.976 78zm-7.039-11.658V65.8a2.774 2.774 0 00-.724-2.21 4.234 4.234 0 00-2.639-.606H41.142v6.1H55.73a4 4 0 002.5-.587 2.692 2.692 0 00.7-2.151zm24.209-9.855h10.677l14.549 27.143h-7.9L97.03 77.1H79.9l-3.442 6.53h-7.9l14.588-27.143zm5.593 5.084h-.313l-5.592 10.091H94.1l-5.361-10.091zm41.925-5.084q6.611 0 9.23 2.366t2.621 8.428v5.241q0 6.492-2.366 8.82t-8.9 2.326H110.68V56.487zm-1.056 21.745q3.717 0 4.928-1.213t1.214-4.811v-4.536q0-3.246-1.214-4.459-1.327-1.329-4.928-1.33h-12.124v16.349zm17.874-21.745h28.863v5.4h-22.137v5.003h21.433v5.436h-21.433v5.866h22.137v5.438h-28.863V56.487zm164.572 18.962zm.047-.127v-.005zm0-.013zm.013-.038zm0 0zm0 0v-.019.012zm-.026.073z" fill="#107d48" />
	<path d="M318.336 84.359a21.589 21.589 0 01-7.706 1.682h-4.148q-.527 1.86-1.167 3.667a59 59 0 01-111.2 0h-11.586a70.021 70.021 0 00128.35 14.355q-.252.453-.512.9a69.7 69.7 0 007.969-20.605zM316.889 89.753z" fill="#323167" />
	<path d="M316.481 91.09q-.2.635-.412 1.264.211-.63.412-1.264zM316.031 92.466q-.207.611-.425 1.216.219-.606.425-1.216zM315.563 93.8q-.211.587-.434 1.17.222-.583.434-1.17zM315.054 95.162q-.214.563-.442 1.12c.15-.372.3-.745.442-1.12zM314.542 96.452q-.232.567-.472 1.128.24-.561.472-1.128zM313.992 97.763q-.236.543-.479 1.08.243-.537.479-1.08zM313.422 99.045q-.237.516-.481 1.028.243-.511.481-1.028zM312.808 100.351q-.243.5-.492 1 .249-.5.492-1zM312.208 101.566q-.254.5-.515 1 .261-.495.515-1zM311.527 102.875q-.25.47-.506.933.255-.464.506-.933zM319.37 68.933v-.2q0-7.472-2.757-9.915l-.139-.118-.026-.022-.139-.108-.027-.019c-.05-.038-.1-.076-.154-.112l-.013-.009q-2.844-1.964-10.236-2.052c-2.337-.057-4.682-.005-6.691-.005q-8.29 0-10.891 2.445l-.1.1a8.528 8.528 0 00-2.054 4.541 28.25 28.25 0 00-.445 5.392v.136c-.015 1.128 0 2.256 0 3.344q.035 6.876 2.619 9.074c.1.08.2.159.3.235l.013.009q2.607 1.87 9.579 1.978c2.4.066 4.823.008 6.847.008q8.916 0 11.615-2.113c.04-.031.08-.064.119-.1l.034-.029.01-.009.079-.07a7.82 7.82 0 002.073-4.487v-.031l.007-.035a26.034 26.034 0 00.368-4.432v-.404c.022-1.039.011-2.054.009-2.992zm-6.805 2.729l-.01.664-.412 2.875v.01l-.019.056v.071l-.825 1.247c-.875.678-3.144.928-5.557 1.01h-.017q-.36.006-.742.006h-5.4q-4.536 0-5.788-1.1l-.07-.064c-.84-.811-1.1-2.487-1.173-4.181l-.008-.525v-2.768q0-4.146 1.272-5.3c.859-.781 3.058-1.059 5.381-1.148q.321-.006.661-.006h5.007q5.044 0 6.393 1.115c.9.747 1.234 2.577 1.338 4.505q.012.346.012.717z" fill="#323167" />
</svg>