<svg data-v-423bf9ae="" xmlns="http://www.w3.org/2000/svg" viewBox="0 0 346.2530249837243 368" class="iconAbove"><!----><!----><!----><g data-v-423bf9ae="" id="59d4b05d-e801-4774-8c0c-cc30f693aab8" fill="white" transform="matrix(4.870129990766698,0,0,4.870129990766698,8.61351901802476,290.1217680230754)"><path d="M4.49 3.78L4.49 3.78Q6.68 3.78 7.91 4.98L7.91 4.98L7.91 4.98Q9.14 6.19 9.14 8.40L9.14 8.40L9.14 8.40Q9.14 10.61 7.91 11.82L7.91 11.82L7.91 11.82Q6.68 13.02 4.49 13.02L4.49 13.02L1.51 13.02L1.51 3.78L4.49 3.78ZM4.61 11.97L4.61 11.97Q6.19 11.97 7.08 11.02L7.08 11.02L7.08 11.02Q7.97 10.08 7.97 8.40L7.97 8.40L7.97 8.40Q7.97 6.72 7.08 5.77L7.08 5.77L7.08 5.77Q6.19 4.83 4.61 4.83L4.61 4.83L2.63 4.83L2.63 11.97L4.61 11.97ZM17.40 9.16L17.40 9.16Q17.40 9.55 17.35 9.94L17.35 9.94L12.07 9.94L12.07 9.94Q12.17 11.00 12.77 11.59L12.77 11.59L12.77 11.59Q13.38 12.18 14.35 12.18L14.35 12.18L14.35 12.18Q15.12 12.18 15.63 11.91L15.63 11.91L15.63 11.91Q16.14 11.65 16.32 11.14L16.32 11.14L17.26 11.63L17.26 11.63Q16.84 12.38 16.14 12.77L16.14 12.77L16.14 12.77Q15.44 13.16 14.35 13.16L14.35 13.16L14.35 13.16Q12.77 13.16 11.87 12.19L11.87 12.19L11.87 12.19Q10.96 11.23 10.96 9.52L10.96 9.52L10.96 9.52Q10.96 7.81 11.82 6.85L11.82 6.85L11.82 6.85Q12.68 5.88 14.27 5.88L14.27 5.88L14.27 5.88Q15.25 5.88 15.96 6.31L15.96 6.31L15.96 6.31Q16.67 6.75 17.04 7.49L17.04 7.49L17.04 7.49Q17.40 8.23 17.40 9.16L17.40 9.16ZM14.27 6.86L14.27 6.86Q13.34 6.86 12.77 7.41L12.77 7.41L12.77 7.41Q12.21 7.95 12.08 8.95L12.08 8.95L16.32 8.95L16.32 8.95Q16.21 7.97 15.68 7.41L15.68 7.41L15.68 7.41Q15.15 6.86 14.27 6.86L14.27 6.86ZM23.97 6.02L25.14 6.02L22.23 13.02L21.11 13.02L18.20 6.02L19.47 6.02L21.69 11.89L23.97 6.02ZM30.38 8.36L34.34 8.36L34.34 13.02L33.50 13.02L33.46 11.77L33.46 11.77Q33.05 12.45 32.32 12.80L32.32 12.80L32.32 12.80Q31.58 13.16 30.55 13.16L30.55 13.16L30.55 13.16Q29.25 13.16 28.28 12.58L28.28 12.58L28.28 12.58Q27.31 12.00 26.79 10.93L26.79 10.93L26.79 10.93Q26.26 9.86 26.26 8.40L26.26 8.40L26.26 8.40Q26.26 6.96 26.80 5.88L26.80 5.88L26.80 5.88Q27.34 4.80 28.32 4.22L28.32 4.22L28.32 4.22Q29.29 3.64 30.58 3.64L30.58 3.64L30.58 3.64Q31.95 3.64 32.84 4.16L32.84 4.16L32.84 4.16Q33.73 4.68 34.27 5.75L34.27 5.75L33.25 6.31L33.25 6.31Q32.94 5.53 32.25 5.11L32.25 5.11L32.25 5.11Q31.56 4.69 30.58 4.69L30.58 4.69L30.58 4.69Q29.64 4.69 28.93 5.14L28.93 5.14L28.93 5.14Q28.22 5.59 27.83 6.42L27.83 6.42L27.83 6.42Q27.44 7.25 27.44 8.40L27.44 8.40L27.44 8.40Q27.44 10.16 28.25 11.14L28.25 11.14L28.25 11.14Q29.06 12.11 30.59 12.11L30.59 12.11L30.59 12.11Q31.79 12.11 32.56 11.49L32.56 11.49L32.56 11.49Q33.32 10.88 33.32 9.73L33.32 9.73L33.32 9.41L30.38 9.41L30.38 8.36ZM40.05 5.88L40.05 5.88Q40.56 5.88 40.82 6.02L40.82 6.02L40.60 7.11L40.60 7.11Q40.26 6.93 39.72 6.93L39.72 6.93L39.72 6.93Q39.27 6.93 38.84 7.19L38.84 7.19L38.84 7.19Q38.42 7.45 38.14 7.97L38.14 7.97L38.14 7.97Q37.87 8.50 37.87 9.24L37.87 9.24L37.87 13.02L36.75 13.02L36.75 6.02L37.66 6.02L37.81 7.17L37.81 7.17Q38.40 5.88 40.05 5.88L40.05 5.88ZM45.19 5.88L45.19 5.88Q46.77 5.88 47.68 6.85L47.68 6.85L47.68 6.85Q48.58 7.81 48.58 9.52L48.58 9.52L48.58 9.52Q48.58 11.23 47.68 12.19L47.68 12.19L47.68 12.19Q46.77 13.16 45.19 13.16L45.19 13.16L45.19 13.16Q43.61 13.16 42.71 12.19L42.71 12.19L42.71 12.19Q41.80 11.23 41.80 9.52L41.80 9.52L41.80 9.52Q41.80 7.81 42.71 6.85L42.71 6.85L42.71 6.85Q43.61 5.88 45.19 5.88L45.19 5.88ZM45.19 6.85L45.19 6.85Q44.13 6.85 43.53 7.56L43.53 7.56L43.53 7.56Q42.92 8.27 42.92 9.52L42.92 9.52L42.92 9.52Q42.92 10.77 43.53 11.48L43.53 11.48L43.53 11.48Q44.13 12.19 45.19 12.19L45.19 12.19L45.19 12.19Q46.26 12.19 46.86 11.48L46.86 11.48L46.86 11.48Q47.46 10.77 47.46 9.52L47.46 9.52L47.46 9.52Q47.46 8.27 46.86 7.56L46.86 7.56L46.86 7.56Q46.26 6.85 45.19 6.85L45.19 6.85ZM55.69 6.02L56.81 6.02L56.81 13.02L55.83 13.02L55.76 11.96L55.76 11.96Q55.06 13.16 53.26 13.16L53.26 13.16L53.26 13.16Q52.12 13.16 51.40 12.53L51.40 12.53L51.40 12.53Q50.68 11.90 50.68 10.60L50.68 10.60L50.68 6.02L51.80 6.02L51.80 10.30L51.80 10.30Q51.80 11.33 52.22 11.75L52.22 11.75L52.22 11.75Q52.64 12.18 53.45 12.18L53.45 12.18L53.45 12.18Q54.42 12.18 55.05 11.59L55.05 11.59L55.05 11.59Q55.69 11.00 55.69 9.83L55.69 9.83L55.69 6.02ZM62.86 5.88L62.86 5.88Q64.33 5.88 65.19 6.85L65.19 6.85L65.19 6.85Q66.05 7.83 66.05 9.52L66.05 9.52L66.05 9.52Q66.05 11.21 65.19 12.19L65.19 12.19L65.19 12.19Q64.33 13.16 62.86 13.16L62.86 13.16L62.86 13.16Q62.09 13.16 61.48 12.82L61.48 12.82L61.48 12.82Q60.87 12.49 60.54 11.93L60.54 11.93L60.54 15.96L59.42 15.96L59.42 6.02L60.40 6.02L60.47 7.24L60.47 7.24Q60.77 6.62 61.41 6.25L61.41 6.25L61.41 6.25Q62.05 5.88 62.86 5.88L62.86 5.88ZM62.73 12.18L62.73 12.18Q63.76 12.18 64.34 11.46L64.34 11.46L64.34 11.46Q64.93 10.74 64.93 9.52L64.93 9.52L64.93 9.52Q64.93 8.30 64.34 7.58L64.34 7.58L64.34 7.58Q63.76 6.86 62.73 6.86L62.73 6.86L62.73 6.86Q61.73 6.86 61.13 7.56L61.13 7.56L61.13 7.56Q60.54 8.26 60.54 9.44L60.54 9.44L60.54 9.60L60.54 9.60Q60.54 10.78 61.13 11.48L61.13 11.48L61.13 11.48Q61.73 12.18 62.73 12.18L62.73 12.18Z"></path></g><!----><g data-v-423bf9ae="" id="34293638-27dd-4475-a59e-fc3a0aa741e7" transform="matrix(1.8100001017252605,0,0,1.8100001017252605,-58.28951515960702,-84.08952130127)" stroke="none" fill="white"><style></style><path d="M84.5 82.1c9 0 16.4-6.7 17.6-15.4h30.4l13 18.8c.5.7 1.2 1 2 1h73.7c1.3 0 2.4-1.1 2.4-2.4 0-1.3-1.1-2.4-2.4-2.4h-72.5l-13-18.8c-.5-.7-1.2-1-2-1H102c-1.2-8.7-8.6-15.4-17.6-15.4-9.8 0-17.8 8-17.8 17.8s8.1 17.8 17.9 17.8zm0-30.7c7.1 0 12.9 5.8 12.9 12.9 0 7.1-5.8 12.9-12.9 12.9-7.1 0-12.9-5.8-12.9-12.9s5.7-12.9 12.9-12.9zM221.2 109.5h-76.7c-1.2-8.7-8.6-15.4-17.6-15.4-9.8 0-17.8 8-17.8 17.8s8 17.8 17.8 17.8c9 0 16.4-6.7 17.6-15.4h76.7c1.3 0 2.4-1.1 2.4-2.4 0-1.3-1.1-2.4-2.4-2.4zm-94.3 15.4c-7.1 0-12.9-5.8-12.9-12.9s5.8-13 12.9-13c7.1 0 12.9 5.8 12.9 12.9 0 7.2-5.8 13-12.9 13z"></path><path d="M221.2 140.3h-66.9c-.8 0-1.6.4-2.1 1.1l-9.4 15h-41.2l-10.2-19c-.4-.8-1.2-1.3-2.1-1.3H67.7c-1.2-8.7-8.6-15.4-17.6-15.4-9.8 0-17.8 8-17.8 17.8s8 17.8 17.8 17.8c9 0 16.4-6.7 17.6-15.4h20.1l10.2 19c.4.8 1.2 1.3 2.1 1.3h44c.8 0 1.6-.4 2.1-1.1l9.4-15h65.5c1.3 0 2.4-1.1 2.4-2.4.1-1.3-1-2.4-2.3-2.4zM50.1 151.6c-7.1 0-12.9-5.8-12.9-12.9s5.8-12.9 12.9-12.9c7.1 0 12.9 5.8 12.9 12.9.1 7.1-5.7 12.9-12.9 12.9zM221.2 168.6h-38.6c-.9 0-1.7.5-2.1 1.2l-11.4 19.4h-58.2c-1.2-8.7-8.6-15.4-17.6-15.4-9.8 0-17.8 8-17.8 17.8s8 17.8 17.8 17.8c9 0 16.4-6.7 17.6-15.4h59.6c.9 0 1.7-.5 2.1-1.2l11.4-19.4h37.2c1.3 0 2.4-1.1 2.4-2.4 0-1.3-1.1-2.4-2.4-2.4zm-127.9 36c-7.1 0-12.9-5.8-12.9-12.9 0-7.1 5.8-12.9 12.9-12.9 7.1 0 12.9 5.8 12.9 12.9.1 7.1-5.7 12.9-12.9 12.9z"></path></g><!----></svg>