<svg data-v-423bf9ae="" xmlns="http://www.w3.org/2000/svg" viewBox="0 0 70.46040232057224 60" class="icon"><!----><!----><!----><!----><g data-v-423bf9ae="" id="7ccd1d39-2eeb-4f72-9790-f6a8bdbbf6db" transform="matrix(0.3683241045297244,0,0,0.3683241045297244,-11.896871549093092,-17.127070860632188)" stroke="none" fill="black"><style></style><path d="M84.5 82.1c9 0 16.4-6.7 17.6-15.4h30.4l13 18.8c.5.7 1.2 1 2 1h73.7c1.3 0 2.4-1.1 2.4-2.4 0-1.3-1.1-2.4-2.4-2.4h-72.5l-13-18.8c-.5-.7-1.2-1-2-1H102c-1.2-8.7-8.6-15.4-17.6-15.4-9.8 0-17.8 8-17.8 17.8s8.1 17.8 17.9 17.8zm0-30.7c7.1 0 12.9 5.8 12.9 12.9 0 7.1-5.8 12.9-12.9 12.9-7.1 0-12.9-5.8-12.9-12.9s5.7-12.9 12.9-12.9zM221.2 109.5h-76.7c-1.2-8.7-8.6-15.4-17.6-15.4-9.8 0-17.8 8-17.8 17.8s8 17.8 17.8 17.8c9 0 16.4-6.7 17.6-15.4h76.7c1.3 0 2.4-1.1 2.4-2.4 0-1.3-1.1-2.4-2.4-2.4zm-94.3 15.4c-7.1 0-12.9-5.8-12.9-12.9s5.8-13 12.9-13c7.1 0 12.9 5.8 12.9 12.9 0 7.2-5.8 13-12.9 13z"></path><path d="M221.2 140.3h-66.9c-.8 0-1.6.4-2.1 1.1l-9.4 15h-41.2l-10.2-19c-.4-.8-1.2-1.3-2.1-1.3H67.7c-1.2-8.7-8.6-15.4-17.6-15.4-9.8 0-17.8 8-17.8 17.8s8 17.8 17.8 17.8c9 0 16.4-6.7 17.6-15.4h20.1l10.2 19c.4.8 1.2 1.3 2.1 1.3h44c.8 0 1.6-.4 2.1-1.1l9.4-15h65.5c1.3 0 2.4-1.1 2.4-2.4.1-1.3-1-2.4-2.3-2.4zM50.1 151.6c-7.1 0-12.9-5.8-12.9-12.9s5.8-12.9 12.9-12.9c7.1 0 12.9 5.8 12.9 12.9.1 7.1-5.7 12.9-12.9 12.9zM221.2 168.6h-38.6c-.9 0-1.7.5-2.1 1.2l-11.4 19.4h-58.2c-1.2-8.7-8.6-15.4-17.6-15.4-9.8 0-17.8 8-17.8 17.8s8 17.8 17.8 17.8c9 0 16.4-6.7 17.6-15.4h59.6c.9 0 1.7-.5 2.1-1.2l11.4-19.4h37.2c1.3 0 2.4-1.1 2.4-2.4 0-1.3-1.1-2.4-2.4-2.4zm-127.9 36c-7.1 0-12.9-5.8-12.9-12.9 0-7.1 5.8-12.9 12.9-12.9 7.1 0 12.9 5.8 12.9 12.9.1 7.1-5.7 12.9-12.9 12.9z"></path></g><!----></svg>